<svg width="31" height="30" viewBox="0 0 31 30" fill="none" xmlns="http://www.w3.org/2000/svg">
<g opacity="0.8">
<path d="M25.5 4H5.5C4.94772 4 4.5 4.44772 4.5 5V25C4.5 25.5523 4.94772 26 5.5 26H25.5C26.0523 26 26.5 25.5523 26.5 25V5C26.5 4.44772 26.0523 4 25.5 4Z" fill="#025385"/>
<path d="M10.6712 11.1374L8.53652 18.8873C8.50674 18.9931 8.35904 19.0037 8.30648 18.9223L8.29338 18.8912L6.5126 15.082C6.47523 15.0152 6.41969 15.0109 6.38738 15.082L6.38664 15.0832L4.5 19.0783L4.51489 18.5109L6.40421 14.4956C6.40418 14.4952 6.40418 14.4948 6.40421 14.4944V14.4929C6.4086 14.4841 6.41535 14.4767 6.4237 14.4715C6.43204 14.4663 6.44167 14.4636 6.45148 14.4636C6.4613 14.4636 6.47092 14.4663 6.47927 14.4715C6.48762 14.4767 6.49436 14.4841 6.49875 14.4929V14.4938L8.34147 18.3498L8.34623 18.3584C8.35106 18.3674 8.3584 18.3747 8.36734 18.3795C8.37629 18.3843 8.38644 18.3863 8.39654 18.3854C8.40663 18.3844 8.41623 18.3805 8.42412 18.3741C8.43202 18.3677 8.43786 18.3592 8.44093 18.3495L10.4315 11.1908L10.4546 11.1012C10.4815 11.0065 10.6941 11.0517 10.6712 11.1374Z" fill="white"/>
<path d="M11.1958 17.2324C11.1958 18.2223 11.9157 19.0278 12.9026 19.0393H12.977C14.1214 19.052 14.8406 18.2628 14.8476 17.196L14.8855 11.3452L14.9244 11.3059H16.9931L17.0322 11.3452V18.8602C17.0322 18.9023 17.0488 18.9427 17.0785 18.9725C17.1082 19.0022 17.1485 19.019 17.1904 19.019C17.222 19.019 17.2523 19.0064 17.2747 18.984C17.297 18.9616 17.3095 18.9312 17.3095 18.8995V11.3625C17.3095 11.179 17.1607 11.0301 16.9781 11.0749H14.9688C14.7737 11.0799 14.6443 11.175 14.643 11.3546L14.6025 17.3074C14.6012 17.494 14.5631 17.6784 14.4902 17.8501C14.4173 18.0217 14.3112 18.1772 14.178 18.3074C14.0447 18.4376 13.8871 18.54 13.7141 18.6086C13.5411 18.6773 13.3563 18.7108 13.1703 18.7073L12.9076 18.7024C12.521 18.6951 12.1528 18.5358 11.8822 18.2588C11.6116 17.9818 11.4604 17.6093 11.4611 17.2215L11.4812 11.211C11.4812 11.1753 11.4671 11.1411 11.442 11.1159C11.4169 11.0907 11.3828 11.0766 11.3472 11.0766H11.3393C11.2649 11.0766 11.2128 11.0966 11.2053 11.211L11.1958 17.2324Z" fill="white"/>
<path d="M7.32499 23.5062C7.32499 23.3296 7.25953 23.1935 7.1286 23.0978C6.99767 23.0021 6.76182 22.9055 6.42105 22.808C6.07989 22.7104 5.8085 22.6019 5.6069 22.4823C5.22097 22.2523 5.02805 21.9524 5.02815 21.5826C5.02815 21.2589 5.16712 20.9921 5.44505 20.7824C5.72299 20.5726 6.08406 20.4678 6.52826 20.4678C6.82297 20.4678 7.08567 20.5193 7.31635 20.6223C7.54704 20.7254 7.72829 20.8721 7.86011 21.0625C7.9904 21.2477 8.0596 21.4692 8.05799 21.6958H7.32499C7.32499 21.4862 7.25551 21.3219 7.11654 21.203C6.97757 21.0842 6.77934 21.0249 6.52185 21.0251C6.28134 21.0251 6.09473 21.0738 5.96201 21.1714C5.8293 21.2689 5.76304 21.4051 5.76324 21.5799C5.76324 21.7272 5.83501 21.85 5.97854 21.9483C6.12207 22.0467 6.35857 22.1423 6.68802 22.2353C7.01767 22.3284 7.28231 22.4342 7.48192 22.5528C7.68154 22.6713 7.82795 22.8075 7.92116 22.9612C8.01427 23.1148 8.06077 23.2946 8.06067 23.5007C8.06067 23.8355 7.92548 24.1018 7.65509 24.2996C7.3847 24.4974 7.01802 24.5963 6.55506 24.5963C6.24863 24.5963 5.96703 24.5425 5.71023 24.4349C5.45344 24.3272 5.25362 24.1787 5.11078 23.9891C4.96834 23.8 4.89707 23.5792 4.89697 23.3269H5.63191C5.63191 23.5548 5.71132 23.7314 5.87014 23.8567C6.02896 23.9819 6.25677 24.0445 6.55357 24.0444C6.80947 24.0444 7.00189 23.9951 7.13083 23.8967C7.25977 23.7982 7.32449 23.6681 7.32499 23.5062Z" fill="white"/>
<path d="M9.52352 20.8286V21.5545H10.079V22.0511H9.52352V23.718C9.52352 23.8321 9.5473 23.9144 9.59484 23.965C9.64239 24.0156 9.72721 24.0409 9.8493 24.0409C9.93245 24.0407 10.0153 24.0315 10.0965 24.0132V24.5321C9.94472 24.5732 9.78834 24.5945 9.63117 24.5956C9.08831 24.5956 8.81687 24.3113 8.81687 23.7428V22.0516H8.29932V21.5549H8.81687V20.8286H9.52352Z" fill="white"/>
<path d="M12.5244 24.2483C12.3166 24.4802 12.0219 24.5962 11.6403 24.5962C11.299 24.5962 11.0407 24.5016 10.8653 24.3125C10.6899 24.1233 10.6021 23.8492 10.602 23.4901V21.5551H11.3088V23.4813C11.3088 23.8603 11.4745 24.0498 11.806 24.0498C12.1491 24.0498 12.3808 23.9329 12.501 23.6992V21.5551H13.2078V24.5415H12.5418L12.5244 24.2483Z" fill="white"/>
<path d="M13.7949 23.0261C13.7949 22.5661 13.9074 22.1968 14.1323 21.9181C14.3572 21.6393 14.6587 21.5 15.0367 21.5C15.3701 21.5 15.6396 21.6104 15.845 21.8312V20.3022H16.5518V24.5411H15.9116L15.8766 24.232C15.6653 24.4749 15.3832 24.5963 15.0304 24.5963C14.6621 24.5963 14.364 24.4556 14.1362 24.1741C13.9084 23.8925 13.7946 23.5099 13.7949 23.0261ZM14.5016 23.084C14.5016 23.3875 14.5631 23.6244 14.6862 23.7946C14.8093 23.9649 14.9843 24.05 15.2112 24.05C15.5001 24.05 15.7113 23.9276 15.845 23.6829V22.4079C15.7152 22.1689 15.5059 22.0495 15.217 22.0495C14.9881 22.0495 14.8117 22.1355 14.6877 22.3075C14.5637 22.4795 14.5017 22.7383 14.5016 23.0837V23.084Z" fill="white"/>
<path d="M17.2907 20.7797C17.2893 20.7321 17.2978 20.6847 17.3155 20.6406C17.3333 20.5964 17.3599 20.5564 17.3939 20.523C17.4626 20.4549 17.561 20.4209 17.689 20.4209C17.8169 20.4209 17.9158 20.4549 17.9857 20.523C18.0199 20.5562 18.0468 20.5962 18.0648 20.6404C18.0827 20.6846 18.0913 20.732 18.0899 20.7797C18.0912 20.8268 18.0825 20.8736 18.0646 20.9171C18.0466 20.9606 18.0198 20.9998 17.9857 21.0322C17.9162 21.0993 17.8173 21.1329 17.689 21.1329C17.5606 21.1329 17.4623 21.0993 17.3942 21.0322C17.3603 20.9997 17.3337 20.9604 17.3159 20.9169C17.298 20.8734 17.2895 20.8267 17.2907 20.7797ZM18.0409 24.541H17.3346V21.5546H18.0412L18.0409 24.541Z" fill="white"/>
<path d="M18.6777 23.0203C18.6777 22.7279 18.7388 22.4641 18.8609 22.2289C18.9759 22.0019 19.1549 21.8138 19.3757 21.6881C19.5967 21.562 19.8507 21.499 20.1376 21.499C20.5622 21.499 20.9068 21.6287 21.1714 21.8882C21.436 22.1476 21.579 22.4916 21.6004 22.9203L21.6033 23.0775C21.6033 23.372 21.5438 23.6351 21.4247 23.8668C21.3108 24.0928 21.1327 24.2799 20.9129 24.4044C20.691 24.5313 20.4346 24.5948 20.1437 24.5948C19.6997 24.5948 19.3445 24.4545 19.078 24.1739C18.8114 23.8932 18.678 23.5198 18.6777 23.0536V23.0203ZM19.3844 23.0783C19.3844 23.3856 19.4513 23.6261 19.5851 23.8C19.7189 23.9738 19.905 24.0607 20.1434 24.0607C20.3817 24.0607 20.5673 23.9724 20.7003 23.7958C20.8333 23.6192 20.8997 23.3607 20.8995 23.0203C20.8995 22.7187 20.8312 22.4798 20.6945 22.3036C20.5578 22.1274 20.3722 22.0391 20.1376 22.0387C19.9069 22.0387 19.7236 22.1256 19.5879 22.2994C19.4522 22.4732 19.3844 22.7328 19.3844 23.0783Z" fill="white"/>
</g>
</svg>
