<svg width="31" height="30" viewBox="0 0 31 30" fill="none" xmlns="http://www.w3.org/2000/svg">
<g opacity="0.8">
<path d="M6.40165 9.91963C7.10971 9.02868 7.90785 8.21319 8.78336 7.48613C9.11534 7.22139 9.46398 6.96786 9.82928 6.72554C10.2032 6.47507 10.6059 6.27065 11.0288 6.11671C11.1709 6.06986 11.3168 6.0355 11.4649 6.01403C11.6076 5.99066 11.7535 5.99654 11.8939 6.03129C12.016 6.06007 12.1246 6.12963 12.2019 6.22848C12.2764 6.32601 12.2964 6.46595 12.2619 6.6483C12.2268 6.9135 12.1168 7.16318 11.9447 7.36799C11.7805 7.57082 11.6061 7.76522 11.4222 7.95047C10.8736 8.50739 10.2441 8.97826 9.55485 9.34715C8.85627 9.72417 8.13523 10.058 7.39577 10.3467C8.50318 10.5285 9.42279 10.8768 10.1546 11.3917C11.1239 12.066 11.7094 12.8399 11.9111 13.7135C12.1129 14.587 11.9214 15.5212 11.3368 16.5159C10.8838 17.3071 10.3116 18.0237 9.64027 18.6405C8.96782 19.2524 8.23742 19.7975 7.45938 20.2679C7.03069 20.5347 6.58747 20.7774 6.13177 20.9949C5.6471 21.2282 5.14597 21.4256 4.63241 21.5856C4.12957 21.7434 3.61197 21.8497 3.08761 21.9027C2.59926 21.9564 2.10511 21.9129 1.63369 21.7746C1.40745 21.7071 1.18904 21.6157 0.982146 21.502C0.560168 21.2677 0.242613 20.8823 0.0934336 20.4233C-0.0659336 19.8863 -0.0202751 19.3093 0.221561 18.804C0.342721 18.5696 0.465699 18.3439 0.590494 18.127C0.853189 17.7018 1.14497 17.2953 1.46376 16.9103C1.78362 16.5335 2.115 16.17 2.45788 15.8198C2.80062 15.4731 3.16191 15.1452 3.54015 14.8375C3.68857 14.4741 3.84577 14.1254 4.01176 13.7916C4.17775 13.4578 4.34617 13.1268 4.517 12.7984C4.68231 12.4748 4.86429 12.1599 5.06222 11.8552C5.26404 11.546 5.43711 11.219 5.57928 10.8783C5.46808 10.8673 5.35607 10.8673 5.24487 10.8783C5.11402 10.8901 5.04223 10.8392 5.03042 10.7247C5.0391 10.6507 5.07625 10.5829 5.13401 10.5357C5.19157 10.4907 5.25874 10.4596 5.33029 10.4449C5.40481 10.4276 5.4875 10.4131 5.57928 10.4012C5.6662 10.391 5.75218 10.374 5.83644 10.3504C6.13328 9.6967 6.45587 9.05606 6.80421 8.42845C7.15254 7.80084 7.52057 7.20685 7.90828 6.64648C7.96886 6.57803 8.02944 6.49806 8.09002 6.40659C8.1203 6.36188 8.16393 6.32788 8.21468 6.30944C8.26543 6.291 8.32071 6.28906 8.37263 6.3039C8.41589 6.34894 8.44273 6.40722 8.44882 6.46936C8.45492 6.53151 8.43993 6.5939 8.40625 6.64648C8.34363 6.75294 8.27506 6.85578 8.20089 6.95453C8.1379 7.04089 8.07057 7.12399 7.99915 7.20352C7.92767 7.28289 7.8801 7.38086 7.86194 7.48613C7.852 7.49665 7.84003 7.50506 7.82676 7.51084C7.81348 7.51662 7.79918 7.51965 7.7847 7.51975H7.72473C7.48362 7.89898 7.25402 8.2876 7.03593 8.68561C6.81784 9.08363 6.60641 9.49042 6.40165 9.906V9.91963ZM3.14577 15.42C2.66986 15.8608 2.21818 16.327 1.79271 16.8167C1.36094 17.3139 0.976408 17.8502 0.644108 18.4187C0.526177 18.6218 0.425853 18.8346 0.344236 19.0548C0.256355 19.2971 0.212949 19.5532 0.216109 19.8109C0.216821 20.0631 0.27526 20.3117 0.386945 20.5378C0.508197 20.7803 0.680568 20.9936 0.892184 21.163C1.14335 21.3596 1.43223 21.5025 1.74091 21.5828C2.12602 21.6839 2.52505 21.7213 2.92223 21.6937C3.58536 21.6705 4.24109 21.5464 4.86685 21.3257C5.41305 21.1274 5.94369 20.8887 6.45436 20.6114C7.44231 20.1054 8.36327 19.4781 9.19592 18.7441C10.0208 18.0064 10.7108 17.1306 11.235 16.1561C11.4057 15.8187 11.535 15.4621 11.6203 15.0938C11.7174 14.6949 11.7261 14.2796 11.6458 13.877C11.5825 13.524 11.4453 13.1883 11.2432 12.892C11.0591 12.6193 10.8434 12.3692 10.6008 12.1469C10.0961 11.6865 9.51079 11.3233 8.87423 11.0755C8.13242 10.7932 7.34619 10.6455 6.5525 10.6393C6.46163 10.662 6.37076 10.6875 6.27989 10.7157C6.18902 10.7438 6.09815 10.7702 6.00728 10.7929C5.73345 11.3302 5.47659 11.8755 5.23669 12.4286C4.9968 12.9817 4.7569 13.539 4.517 14.1006C4.98362 13.7794 5.47322 13.493 5.98183 13.2437C6.52393 12.977 7.08864 12.759 7.66929 12.5921C7.70815 12.5763 7.74871 12.565 7.79015 12.5585C7.81291 12.5508 7.83768 12.5518 7.85979 12.5612C7.88189 12.5706 7.89979 12.5877 7.9101 12.6094C7.91761 12.6314 7.91643 12.6554 7.9068 12.6765C7.89716 12.6976 7.87981 12.7142 7.8583 12.723L7.73836 12.7657C7.11324 12.9498 6.50518 13.1876 5.92095 13.4763C5.37324 13.7496 4.85212 14.0733 4.36434 14.4432C4.13535 14.9684 3.90393 15.4967 3.67009 16.0279C3.43625 16.5592 3.19938 17.082 2.95948 17.5964C2.92495 17.6763 2.89042 17.7499 2.8568 17.819C2.83743 17.8544 2.81042 17.8851 2.77773 17.9089C2.74505 17.9326 2.70749 17.9488 2.66779 17.9562C2.63877 17.9451 2.61419 17.9247 2.59779 17.8983C2.58139 17.8719 2.57406 17.8409 2.57692 17.8099C2.58183 17.7489 2.59032 17.6882 2.60236 17.6282C2.69126 17.2053 2.81279 16.79 2.96585 16.386L3.39384 15.2465C3.36022 15.2355 3.31933 15.2555 3.2739 15.3064C3.2365 15.3499 3.1934 15.3881 3.14577 15.42ZM3.67736 14.9738C3.55075 15.2828 3.42504 15.5999 3.30025 15.9253C3.17538 16.2462 3.07246 16.5754 2.9922 16.9103C3.1176 16.5571 3.25724 16.2088 3.41111 15.8653C3.56498 15.5218 3.70492 15.1792 3.83093 14.8375C3.80672 14.8616 3.78124 14.8843 3.7546 14.9057C3.72748 14.9268 3.70169 14.9496 3.67736 14.9738ZM3.83093 14.5976L3.91726 14.5377C3.93998 14.5204 3.96814 14.5004 4.00268 14.4777C4.11717 14.2033 4.23137 13.9307 4.34526 13.6599C4.45915 13.3891 4.57334 13.1234 4.68784 12.8629C4.71056 12.852 4.71692 12.8429 4.7051 12.8375C4.69329 12.832 4.68784 12.8375 4.68784 12.8629C4.37256 13.426 4.08654 14.005 3.83093 14.5976ZM6.5734 10.2958C7.39134 10.0369 8.1852 9.70732 8.94602 9.3108C9.71975 8.91158 10.442 8.41968 11.0969 7.84597C11.1998 7.75459 11.2972 7.65718 11.3886 7.55428C11.5032 7.42752 11.6088 7.29302 11.7048 7.15172C11.7944 7.02324 11.8694 6.88518 11.9284 6.74008C11.9541 6.68793 11.9666 6.63031 11.9651 6.57221C11.9635 6.51411 11.9478 6.45726 11.9193 6.40659C11.8819 6.36145 11.8309 6.32958 11.7739 6.31572C11.7047 6.29335 11.6312 6.28775 11.5595 6.29936C11.2518 6.30218 10.9493 6.37851 10.6771 6.52199C10.4096 6.65658 10.1493 6.80521 9.89743 6.96726C9.32225 7.33105 8.78279 7.7485 8.2863 8.214C7.80651 8.66593 7.33247 9.1542 6.86418 9.67883C6.83114 9.73536 6.79081 9.78729 6.74423 9.83331C6.69549 9.88391 6.65501 9.94187 6.62429 10.0051C6.56769 10.0385 6.52048 10.0857 6.48707 10.1423C6.46021 10.1694 6.43474 10.198 6.41074 10.2277C6.38166 10.2622 6.37893 10.2904 6.40165 10.3131C6.45783 10.2994 6.51563 10.2936 6.5734 10.2958Z" fill="#025385"/>
<path d="M14.8493 15.6426C14.6445 16.4222 14.421 17.1877 14.1786 17.9389C13.943 18.6777 13.67 19.404 13.3608 20.1152C13.0645 20.7991 12.7239 21.4629 12.3412 22.1025C11.9742 22.7173 11.5436 23.2918 11.0563 23.8164C10.7056 24.1868 10.3149 24.5172 9.89137 24.8014C9.49005 25.0889 9.01342 25.2529 8.52014 25.273C8.2868 25.2814 8.0548 25.2344 7.84315 25.1358C7.667 25.0426 7.49998 24.9331 7.34427 24.8087C7.17725 24.6137 7.04673 24.3902 6.95898 24.1489C6.85805 23.8719 6.80847 23.5787 6.81268 23.2839C6.79132 22.7297 6.89993 22.1783 7.12982 21.6736C7.33146 21.244 7.55749 20.8262 7.8068 20.4224C8.14453 19.9145 8.53836 19.4463 8.98085 19.0266C9.44468 18.5902 9.94306 18.1921 10.4711 17.8362C11.0254 17.4588 11.6397 17.0844 12.314 16.713C12.9882 16.3417 13.7309 15.9449 14.5421 15.5226C14.633 15.1001 14.7329 14.6803 14.842 14.2632C14.9534 13.8228 15.0195 13.3721 15.0392 12.9183C14.8539 13.0687 14.6819 13.2347 14.5248 13.4144C14.3649 13.5962 14.208 13.7818 14.0541 13.9715L13.5898 14.5403C13.4363 14.7283 13.2734 14.9085 13.1018 15.0801C12.9873 15.194 12.8701 15.3082 12.7501 15.4227C12.6255 15.5394 12.4658 15.6116 12.2958 15.628C12.2179 15.598 12.1517 15.5439 12.1068 15.4736C12.0812 15.2993 12.1051 15.1214 12.1758 14.9601C12.244 14.8111 12.3131 14.6739 12.3812 14.5485C12.4494 14.4231 12.5184 14.2759 12.5866 14.1459C12.6547 14.016 12.7238 13.8797 12.7929 13.7434C12.8519 13.66 12.8978 13.568 12.9292 13.4708C12.9447 13.4214 12.974 13.3776 13.0136 13.3442C13.0532 13.3109 13.1014 13.2896 13.1527 13.2827C13.2663 13.3163 13.3263 13.3654 13.3344 13.4281C13.3372 13.5029 13.3192 13.5771 13.2826 13.6425C13.2391 13.728 13.1906 13.8108 13.1373 13.8906C13.0847 13.9645 13.0496 14.0493 13.0346 14.1387C13.0219 14.184 13.0248 14.2323 13.0428 14.2759C13.0503 14.2991 13.0519 14.3238 13.0474 14.3477C13.043 14.3717 13.0326 14.3942 13.0173 14.4131C12.9482 14.4476 12.9028 14.4249 12.8801 14.3449C12.811 14.4934 12.7426 14.6333 12.6747 14.7648C12.6015 14.9058 12.5384 15.0519 12.4857 15.2019C12.7484 15.0079 12.9894 14.7861 13.2045 14.5403C13.4323 14.2828 13.6495 14.0257 13.856 13.7688C14.0626 13.512 14.2595 13.2778 14.4467 13.0664C14.6024 12.8834 14.7843 12.7245 14.9865 12.5948C14.9983 12.5948 15.0037 12.5948 15.0037 12.5866C15.0037 12.5784 15.0092 12.5775 15.021 12.5775C15.0539 12.5891 15.0892 12.5922 15.1237 12.5866C15.1582 12.5811 15.1809 12.5866 15.1927 12.612C15.2193 12.622 15.2432 12.638 15.2624 12.6589C15.2817 12.6797 15.2958 12.7047 15.3036 12.732C15.3206 12.7895 15.3406 12.8468 15.3636 12.9037C15.3576 13.3279 15.3058 13.7502 15.2091 14.1632C15.1182 14.534 15.0274 14.9195 14.9365 15.32C15.0882 15.25 15.8316 15.0083 16.2859 14.7584C16.5776 14.5985 16.7693 14.5767 16.7957 14.6266C16.8012 14.6357 16.7957 14.6512 16.7712 14.6912C16.5276 14.9011 16.484 14.932 16.1042 15.1164L14.8493 15.6426ZM8.35475 20.1316C8.16146 20.371 7.98418 20.623 7.82407 20.8858C7.65642 21.1643 7.51322 21.4568 7.39607 21.76C7.23397 22.1745 7.13296 22.6104 7.0962 23.054C7.06179 23.4125 7.10233 23.7742 7.21524 24.1162C7.3105 24.4001 7.49386 24.6462 7.73865 24.8187C8.00192 24.9898 8.31826 25.0599 8.62918 25.0159C8.96897 24.9971 9.29875 24.894 9.58877 24.716C9.84078 24.55 10.0979 24.3643 10.3603 24.1589C10.9368 23.6712 11.4365 23.0992 11.8424 22.4624C12.2762 21.7887 12.6545 21.081 12.9737 20.346C13.2975 19.6023 13.5805 18.8415 13.8215 18.067C14.0638 17.2964 14.2759 16.5625 14.4576 15.8652C14.4579 15.8629 14.4577 15.8605 14.4569 15.8583C14.4561 15.856 14.4549 15.854 14.4532 15.8523C14.4515 15.8507 14.4495 15.8494 14.4473 15.8486C14.4451 15.8479 14.4427 15.8476 14.4403 15.8479C14.4285 15.8479 14.4285 15.8543 14.4403 15.8652C13.0543 16.574 11.8463 17.2622 10.8164 17.9298C9.78657 18.5974 8.96601 19.3313 8.35475 20.1316Z" fill="#025385"/>
<path d="M14.6256 17.4183C14.814 17.354 14.9812 17.2393 15.109 17.0866C15.2558 16.9293 15.3864 16.7576 15.4988 16.5741C15.635 16.3329 15.7535 16.082 15.8532 15.8235C15.9877 15.4916 16.0837 15.2511 16.1413 15.102C16.1988 14.953 16.2855 14.7004 16.4012 14.3442L18.8547 7.38623H19.7498L22.3623 14.3442C22.4107 14.4496 22.5262 14.7455 22.7085 15.232C22.8674 15.6601 23.0494 16.0793 23.2537 16.4878C23.4318 16.8386 23.6027 17.0863 23.7662 17.2311C23.9057 17.3369 24.0694 17.4062 24.2424 17.4329L21.3409 17.4619C21.6299 17.4519 21.8416 17.3829 21.977 17.2529C22.1124 17.123 22.1651 16.9303 22.136 16.675C22.1111 16.4405 22.0652 16.2088 21.9988 15.9826C21.9382 15.7754 21.8419 15.5082 21.7098 15.1811C21.5778 14.854 21.4936 14.6374 21.4572 14.5314L21.1682 13.7662C20.7442 14.1225 20.0802 14.3006 19.1764 14.3006C19.1091 14.3006 19.0128 14.3006 18.8883 14.2933C18.7638 14.286 18.6666 14.286 18.5993 14.286C17.6179 14.286 16.9107 14.5074 16.4775 14.9503L16.0868 16.1916C15.9905 16.5478 15.9735 16.8268 16.0359 17.0285C16.0571 17.118 16.1007 17.2007 16.1625 17.2689C16.2243 17.337 16.3023 17.3884 16.3894 17.4183H14.6256ZM16.5602 14.6313C16.8672 14.388 17.2336 14.2312 17.6216 14.177C18.0191 14.1068 18.4237 14.0848 18.8265 14.1115C19.2296 14.1392 19.6345 14.1151 20.0315 14.0398C20.4218 13.9801 20.7887 13.8155 21.0928 13.5636L18.9565 7.81605L16.5602 14.6313Z" fill="#025385"/>
<path d="M30.4033 12.2505C30.3147 11.7669 30.0621 11.3285 29.6881 11.0093C29.2992 10.6627 28.8109 10.4895 28.2233 10.4895C27.8221 10.4882 27.4363 10.6437 27.1483 10.9229C26.9986 11.0541 26.8791 11.2162 26.798 11.398C26.7169 11.5798 26.6761 11.7771 26.6785 11.9761C26.6719 12.1638 26.7067 12.3506 26.7804 12.5233C26.854 12.696 26.9647 12.8505 27.1047 12.9757C27.403 13.239 27.7553 13.4337 28.137 13.5464C28.541 13.6718 28.9475 13.8041 29.3564 13.9435C29.7475 14.0723 30.1033 14.29 30.396 14.5795C30.5383 14.7249 30.6495 14.8978 30.7226 15.0877C30.7957 15.2775 30.8293 15.4803 30.8213 15.6836C30.8213 16.35 30.5374 16.8674 29.9698 17.2357C29.3895 17.6093 28.7116 17.8025 28.0215 17.7909C27.236 17.8025 26.4652 17.577 25.8098 17.1439C25.7998 17.0003 25.7952 16.7804 25.7952 16.4951C25.7952 16.2098 25.7998 15.9699 25.8098 15.8163L25.9006 15.8018C25.9955 16.2932 26.2459 16.7412 26.6149 17.0794C26.985 17.4211 27.4591 17.5919 28.037 17.5919C28.5125 17.6021 28.9793 17.4633 29.3719 17.1948C29.7517 16.9307 29.9416 16.5529 29.9416 16.0616C29.9523 15.7353 29.842 15.4165 29.6318 15.1666C29.4267 14.9276 29.163 14.7459 28.8666 14.6395L27.8671 14.276C27.5036 14.1458 27.1704 14.0183 26.8675 13.8935C26.5624 13.7677 26.2977 13.5606 26.1024 13.2946C25.8882 12.9995 25.7788 12.6413 25.7916 12.2769C25.7853 12.0648 25.821 11.8536 25.8966 11.6554C25.9723 11.4572 26.0863 11.2759 26.2323 11.1219C26.5093 10.8236 26.8605 10.6041 27.2501 10.4858C27.658 10.3673 28.0811 10.3091 28.5059 10.3132C29.1959 10.342 29.8753 10.4934 30.5123 10.7603L30.5268 11.0919C30.5268 11.1016 30.5123 11.4818 30.4832 12.2324L30.4033 12.2505Z" fill="#025385"/>
<path d="M24.663 14.1772L24.6421 14.1208C24.6149 14.0472 24.5949 13.9711 24.5822 13.8937L23.9815 10.2389C23.9574 10.1024 23.9489 9.96374 23.9561 9.8254C23.9633 9.6891 23.9824 9.63185 24.0251 9.6273C24.0678 9.62276 24.0978 9.66184 24.1414 9.76906C24.1933 9.90173 24.2269 10.0408 24.2414 10.1825L24.6549 13.9282C24.6603 13.9737 24.663 14.0196 24.663 14.0654V14.1772ZM24.0351 9.6891C24.0204 9.73397 24.0131 9.78091 24.0133 9.82813C24.0066 9.96224 24.0151 10.0967 24.0388 10.2289L24.4931 13.005L24.1823 10.188C24.1682 10.0516 24.1358 9.91772 24.086 9.78996C24.0746 9.75269 24.0574 9.71743 24.0351 9.68546V9.6891Z" fill="#025385"/>
<path d="M24.5682 13.5582L24.2883 11.1638C24.2765 11.0729 24.2329 10.2105 24.2065 10.1288C24.1929 10.0879 24.1993 10.5113 24.1602 10.5195C24.1211 10.5277 24.0148 10.176 24.0166 10.2587C24.0184 10.3414 24.1738 11.0874 24.1884 11.1783L24.5682 13.5582C24.5691 13.5627 24.5373 13.5682 24.5682 13.5582Z" fill="#025385"/>
<path d="M21.1644 13.7663C21.1644 13.7663 22.2476 13.0866 22.6665 12.6458C23.1054 12.1824 23.4761 10.8829 23.4761 10.882C23.5363 10.7008 23.6363 10.5353 23.7687 10.3977C24.1858 9.94789 24.7474 9.8652 25.3744 9.83158C25.5425 9.82249 25.8787 9.80977 25.8787 9.80977V9.68164C25.8787 9.68164 24.8292 9.70799 24.4603 9.82703C24.0741 9.95153 23.6515 10.2096 23.4607 10.5485C23.2698 10.8875 23.1145 11.5663 22.8446 12.0252C22.5856 12.4668 22.4193 12.6531 21.8995 13.0248L21.0771 13.5809" fill="#025385"/>
</g>
</svg>
