<svg width="13" height="9" viewBox="0 0 13 9" fill="none" xmlns="http://www.w3.org/2000/svg">
<path d="M1.39062 4C1.11448 4 0.890625 4.22386 0.890625 4.5C0.890625 4.77614 1.11448 5 1.39062 5V4ZM12.7442 4.85355C12.9394 4.65829 12.9394 4.34171 12.7442 4.14645L9.5622 0.964466C9.36694 0.769204 9.05035 0.769204 8.85509 0.964466C8.65983 1.15973 8.65983 1.47631 8.85509 1.67157L11.6835 4.5L8.85509 7.32843C8.65983 7.52369 8.65983 7.84027 8.85509 8.03553C9.05035 8.2308 9.36694 8.2308 9.5622 8.03553L12.7442 4.85355ZM1.39062 5H12.3906V4H1.39062V5Z" fill="#025385"/>
</svg>
