<svg width="38" height="37" viewBox="0 0 38 37" fill="none" xmlns="http://www.w3.org/2000/svg">
<path d="M37.333 18.5033C37.3337 19.1059 37.3037 19.7082 37.2432 20.3078L33.3832 21.2384C34.0378 17.7729 33.4342 14.1873 31.6814 11.1282C29.9286 8.06909 27.1418 5.73777 23.8238 4.55469C20.5057 3.37161 16.8746 3.41463 13.5855 4.67599C10.2963 5.93735 7.56539 8.33404 5.88534 11.4338L1.3772 12.5189C2.79146 8.37315 5.62919 4.86457 9.38512 2.61786C13.1411 0.371149 17.5714 -0.467855 21.8873 0.250236C26.2032 0.968327 30.1245 3.1969 32.953 6.53915C35.7815 9.8814 37.3336 14.1204 37.333 18.5013V18.5033Z" fill="#025385"/>
<path d="M36.429 24.2316C35.2199 27.944 32.8691 31.1784 29.7129 33.4718C26.5567 35.7652 22.7569 37.0002 18.8572 37C18.7674 37 18.6776 37 18.5898 37C15.3078 36.9585 12.0968 36.0377 9.29037 34.3333L11.2604 31.1896C12.9897 32.2296 14.9136 32.9036 16.9133 33.1701C18.9129 33.4366 20.9459 33.2899 22.8867 32.739C24.8275 32.1881 26.635 31.2447 28.1975 29.9671C29.7601 28.6895 31.0445 27.1048 31.9717 25.3108L36.429 24.2316Z" fill="#025385"/>
<path d="M8.49575 29.0351L6.48866 32.2394C4.96443 30.8628 3.67916 29.2422 2.68534 27.4437C2.08965 26.3689 1.60427 25.2363 1.23664 24.0634C1.20345 23.9559 1.17026 23.8464 1.13902 23.7369C0.639481 22.0374 0.386335 20.2749 0.387341 18.5033C0.38656 17.8207 0.424367 17.1386 0.500581 16.4603L4.38785 15.5238C4.19063 16.5046 4.09316 17.5028 4.09694 18.5033C4.09694 18.6734 4.09694 18.8435 4.09694 19.0136C4.14532 20.4358 4.39849 21.8436 4.84862 23.1934C4.93453 23.4456 5.0263 23.6978 5.12392 23.9461C5.34657 24.5069 5.60348 25.0534 5.89317 25.5825C6.06889 25.9071 6.26023 26.2238 6.45937 26.5346C6.9737 27.327 7.56207 28.0687 8.21655 28.7497C8.30636 28.8455 8.39227 28.9413 8.49575 29.0351Z" fill="#025385"/>
</svg>
