<svg width="152" height="29" viewBox="0 0 152 29" fill="none" xmlns="http://www.w3.org/2000/svg">
<path d="M28.8035 14.5026C28.804 14.9749 28.7806 15.447 28.7334 15.9169L25.7242 16.6463C26.2345 13.9301 25.7639 11.1198 24.3974 8.72212C23.0308 6.32442 20.8583 4.49717 18.2714 3.56989C15.6846 2.64261 12.8538 2.67633 10.2895 3.66497C7.72517 4.6536 5.59614 6.53208 4.28634 8.96166L0.771717 9.8121C1.8743 6.56274 4.08665 3.81277 7.01483 2.05184C9.94302 0.2909 13.397 -0.366697 16.7617 0.196131C20.1265 0.758959 23.1836 2.50568 25.3887 5.12528C27.5939 7.74488 28.8039 11.0673 28.8035 14.501V14.5026Z" fill="white"/>
<path d="M28.0987 18.9923C27.1561 21.9021 25.3233 24.4371 22.8627 26.2347C20.4021 28.0322 17.4397 29.0002 14.3995 29C14.3294 29 14.2594 29 14.1909 29C11.6322 28.9675 9.12889 28.2458 6.94096 26.9099L8.4768 24.4459C9.82505 25.261 11.3249 25.7893 12.8839 25.9982C14.4429 26.2071 16.0278 26.0921 17.5409 25.6603C19.054 25.2285 20.4631 24.4891 21.6813 23.4878C22.8995 22.4864 23.9009 21.2443 24.6237 19.8382L28.0987 18.9923Z" fill="white"/>
<path d="M6.32146 22.7573L4.7567 25.2688C3.56838 24.1898 2.56637 22.9195 1.79157 21.5099C1.32716 20.6675 0.948749 19.7798 0.66214 18.8605C0.636264 18.7763 0.610388 18.6904 0.586033 18.6046C0.196582 17.2726 -0.000775307 15.8911 9.24584e-06 14.5026C-0.000599742 13.9676 0.0288755 13.433 0.0882934 12.9013L3.11888 12.1673C2.96511 12.936 2.88913 13.7184 2.89208 14.5026C2.89208 14.6359 2.89208 14.7692 2.89208 14.9025C2.92979 16.0173 3.12717 17.1207 3.4781 18.1786C3.54508 18.3763 3.61662 18.574 3.69272 18.7686C3.86631 19.2081 4.0666 19.6364 4.29245 20.0512C4.42944 20.3055 4.57861 20.5538 4.73387 20.7974C5.13485 21.4185 5.59355 21.9998 6.10379 22.5335C6.17381 22.6086 6.24079 22.6837 6.32146 22.7573Z" fill="white"/>
<path d="M49.3251 20.4959C50.8347 18.9309 51.6008 16.9576 51.6008 14.576C51.6008 12.1944 50.8347 10.2211 49.3251 8.65603C47.8154 7.09098 45.7425 6.29712 43.1513 6.29712C40.5601 6.29712 38.4871 7.09098 36.9775 8.65603C35.4678 10.2211 34.7017 12.1944 34.7017 14.576C34.7017 16.9576 35.4678 18.9309 36.9775 20.4959C38.4871 22.061 40.5601 22.8549 43.1513 22.8549C45.7425 22.8549 47.8154 22.061 49.3251 20.4959ZM48.6716 14.576C48.6716 16.2091 48.1759 17.5473 47.2071 18.6133C46.2382 19.6567 44.8862 20.1784 43.1513 20.1784C41.4163 20.1784 40.0418 19.6567 39.073 18.6133C38.1041 17.5473 37.6309 16.2091 37.6309 14.576C37.6309 12.9202 38.1041 11.582 39.073 10.5386C40.0418 9.49526 41.4163 8.97358 43.1513 8.97358C44.8862 8.97358 46.2382 9.49526 47.2071 10.5386C48.1759 11.582 48.6716 12.9202 48.6716 14.576Z" fill="white"/>
<path d="M67.3504 6.63735H54.0565V22.5146H56.9631V16.4359H66.8097V13.8275H56.9631V9.22307H67.3504V6.63735Z" fill="white"/>
<path d="M83.1273 6.63735H69.8334V22.5146H72.74V16.4359H82.5866V13.8275H72.74V9.22307H83.1273V6.63735Z" fill="white"/>
<path d="M99.4901 22.5146V19.9516H89.1253L99.4901 9.20039V6.63735H85.8131V9.20039H95.9525L85.6103 19.9516V22.5146H99.4901Z" fill="white"/>
<path d="M115.909 20.4959C117.419 18.9309 118.185 16.9576 118.185 14.576C118.185 12.1944 117.419 10.2211 115.909 8.65603C114.4 7.09098 112.327 6.29712 109.735 6.29712C107.144 6.29712 105.071 7.09098 103.562 8.65603C102.052 10.2211 101.286 12.1944 101.286 14.576C101.286 16.9576 102.052 18.9309 103.562 20.4959C105.071 22.061 107.144 22.8549 109.735 22.8549C112.327 22.8549 114.4 22.061 115.909 20.4959ZM115.256 14.576C115.256 16.2091 114.76 17.5473 113.791 18.6133C112.822 19.6567 111.47 20.1784 109.735 20.1784C108.001 20.1784 106.626 19.6567 105.657 18.6133C104.688 17.5473 104.215 16.2091 104.215 14.576C104.215 12.9202 104.688 11.582 105.657 10.5386C106.626 9.49526 108.001 8.97358 109.735 8.97358C111.47 8.97358 112.822 9.49526 113.791 10.5386C114.76 11.582 115.256 12.9202 115.256 14.576Z" fill="white"/>
<path d="M123.547 22.5146V12.3305L123.525 10.0396H123.705L131.952 22.5146H135.692V6.63735H132.786V16.8215L132.808 19.1123H132.605L124.381 6.63735H120.641V22.5146H123.547Z" fill="white"/>
<path d="M152 6.63735H138.706V22.5146H152V19.9516H141.613V15.8462H151.549V13.5326H141.613V9.20039H152V6.63735Z" fill="white"/>
</svg>
