<svg width="196" height="37" viewBox="0 0 196 37" fill="none" xmlns="http://www.w3.org/2000/svg">
<path d="M37.333 18.5033C37.3337 19.1059 37.3037 19.7082 37.2432 20.3078L33.3832 21.2384C34.0378 17.7729 33.4342 14.1873 31.6814 11.1282C29.9286 8.06909 27.1418 5.73777 23.8238 4.55469C20.5057 3.37161 16.8746 3.41463 13.5855 4.67599C10.2963 5.93735 7.56539 8.33404 5.88534 11.4338L1.3772 12.5189C2.79146 8.37315 5.62919 4.86457 9.38512 2.61786C13.1411 0.371149 17.5714 -0.467855 21.8873 0.250236C26.2032 0.968327 30.1245 3.1969 32.953 6.53915C35.7815 9.8814 37.3336 14.1204 37.333 18.5013V18.5033Z" fill="#025385"/>
<path d="M36.429 24.2316C35.2199 27.944 32.8691 31.1784 29.7129 33.4718C26.5567 35.7652 22.7569 37.0002 18.8572 37C18.7674 37 18.6776 37 18.5898 37C15.3078 36.9585 12.0968 36.0377 9.29037 34.3333L11.2604 31.1896C12.9897 32.2296 14.9136 32.9036 16.9133 33.1701C18.9129 33.4366 20.9459 33.2899 22.8867 32.739C24.8275 32.1881 26.635 31.2447 28.1975 29.9671C29.7601 28.6895 31.0445 27.1048 31.9717 25.3108L36.429 24.2316Z" fill="#025385"/>
<path d="M8.49575 29.0351L6.48866 32.2394C4.96443 30.8628 3.67916 29.2422 2.68534 27.4437C2.08965 26.3689 1.60427 25.2363 1.23664 24.0634C1.20345 23.9559 1.17026 23.8464 1.13902 23.7369C0.639481 22.0374 0.386335 20.2749 0.387341 18.5033C0.38656 17.8207 0.424367 17.1386 0.500581 16.4603L4.38785 15.5238C4.19063 16.5046 4.09316 17.5028 4.09694 18.5033C4.09694 18.6734 4.09694 18.8435 4.09694 19.0136C4.14532 20.4358 4.39849 21.8436 4.84862 23.1934C4.93453 23.4456 5.0263 23.6978 5.12392 23.9461C5.34657 24.5069 5.60348 25.0534 5.89317 25.5825C6.06889 25.9071 6.26023 26.2238 6.45937 26.5346C6.9737 27.327 7.56207 28.0687 8.21655 28.7497C8.30636 28.8455 8.39227 28.9413 8.49575 29.0351Z" fill="#025385"/>
<path d="M63.6557 26.15C65.5921 24.1533 66.5748 21.6356 66.5748 18.597C66.5748 15.5584 65.5921 13.0407 63.6557 11.0439C61.7193 9.04716 59.0604 8.0343 55.7367 8.0343C52.413 8.0343 49.7541 9.04716 47.8177 11.0439C45.8813 13.0407 44.8986 15.5584 44.8986 18.597C44.8986 21.6356 45.8813 24.1533 47.8177 26.15C49.7541 28.1468 52.413 29.1597 55.7367 29.1597C59.0604 29.1597 61.7193 28.1468 63.6557 26.15ZM62.8176 18.597C62.8176 20.6806 62.1818 22.388 60.939 23.7481C59.6962 25.0793 57.9621 25.7449 55.7367 25.7449C53.5113 25.7449 51.7483 25.0793 50.5055 23.7481C49.2628 22.388 48.6558 20.6806 48.6558 18.597C48.6558 16.4845 49.2628 14.7771 50.5055 13.4459C51.7483 12.1147 53.5113 11.4491 55.7367 11.4491C57.9621 11.4491 59.6962 12.1147 60.939 13.4459C62.1818 14.7771 62.8176 16.4845 62.8176 18.597Z" fill="#025385"/>
<path d="M86.7765 8.46838H69.7246V28.7256H73.4529V20.97H86.0829V17.642H73.4529V11.7674H86.7765V8.46838Z" fill="#025385"/>
<path d="M107.013 8.46838H89.9613V28.7256H93.6896V20.97H106.32V17.642H93.6896V11.7674H107.013V8.46838Z" fill="#025385"/>
<path d="M128.001 28.7256V25.4555H114.707L128.001 11.7385V8.46838H110.458V11.7385H123.464L110.198 25.4555V28.7256H128.001Z" fill="#025385"/>
<path d="M149.062 26.15C150.998 24.1533 151.981 21.6356 151.981 18.597C151.981 15.5584 150.998 13.0407 149.062 11.0439C147.126 9.04716 144.467 8.0343 141.143 8.0343C137.819 8.0343 135.16 9.04716 133.224 11.0439C131.288 13.0407 130.305 15.5584 130.305 18.597C130.305 21.6356 131.288 24.1533 133.224 26.15C135.16 28.1468 137.819 29.1597 141.143 29.1597C144.467 29.1597 147.126 28.1468 149.062 26.15ZM148.224 18.597C148.224 20.6806 147.588 22.388 146.345 23.7481C145.103 25.0793 143.368 25.7449 141.143 25.7449C138.918 25.7449 137.155 25.0793 135.912 23.7481C134.669 22.388 134.062 20.6806 134.062 18.597C134.062 16.4845 134.669 14.7771 135.912 13.4459C137.155 12.1147 138.918 11.4491 141.143 11.4491C143.368 11.4491 145.103 12.1147 146.345 13.4459C147.588 14.7771 148.224 16.4845 148.224 18.597Z" fill="#025385"/>
<path d="M158.859 28.7256V15.732L158.83 12.8092H159.062L169.64 28.7256H174.437V8.46838H170.709V21.4619L170.738 24.3848H170.478L159.929 8.46838H155.131V28.7256H158.859Z" fill="#025385"/>
<path d="M195.355 8.46838H178.303V28.7256H195.355V25.4555H182.031V20.2176H194.777V17.2658H182.031V11.7385H195.355V8.46838Z" fill="#025385"/>
</svg>
